<svg xmlns="http://www.w3.org/2000/svg" xmlns:xlink="http://www.w3.org/1999/xlink" width="2607.914" height="1533.558" viewBox="0 0 2607.914 1533.558">
  <defs>
    <clipPath id="clip-path">
      <rect width="45.458" height="243.82" fill="none"/>
    </clipPath>
  </defs>
  <g id="Group_9" data-name="Group 9" transform="translate(256.133 82.637)">
    <g id="Group_6" data-name="Group 6" transform="translate(-66.133 -81.637)" opacity="0.07">
      <g id="sample1" transform="matrix(0.899, 0.438, -0.438, 0.899, 1063.31, 218.65)" opacity="0.4">
        <g id="Rectangle_4" data-name="Rectangle 4" transform="translate(0)" fill="none" stroke="#ebebeb" stroke-width="6">
          <rect width="361.08" height="413.253" stroke="none"/>
          <rect x="3" y="3" width="355.08" height="407.253" fill="none"/>
        </g>
        <rect id="Rectangle_5" data-name="Rectangle 5" width="173.566" height="413.253" transform="translate(0)" fill="#ebebeb"/>
        <g id="basic_picture_multiple" transform="translate(227.635 27.36)">
          <g id="Group_1" data-name="Group 1" transform="translate(0.363 9.143)">
            <rect id="Rectangle_6" data-name="Rectangle 6" width="58.079" height="44.915" fill="none" stroke="#ebebeb" stroke-miterlimit="10" stroke-width="2"/>
          </g>
          <path id="Path_1" data-name="Path 1" d="M0,6.742V0H59.557V44.949h-8.99" transform="translate(10.113)" fill="none" stroke="#ebebeb" stroke-miterlimit="10" stroke-width="2"/>
          <path id="Path_2" data-name="Path 2" d="M0,15.732,15.732,0,31.464,17.98,42.7,11.237,58.433,24.722" transform="translate(0 26.969)" fill="none" stroke="#ebebeb" stroke-miterlimit="10" stroke-width="2"/>
          <ellipse id="Ellipse_1" data-name="Ellipse 1" cx="5.421" cy="5.808" rx="5.421" ry="5.808" transform="translate(38.308 17.661)" fill="none" stroke="#ebebeb" stroke-miterlimit="10" stroke-width="2"/>
        </g>
        <rect id="Rectangle_7" data-name="Rectangle 7" width="118.81" height="25.828" rx="12.914" transform="translate(205.933 184.673)" fill="#ebebeb"/>
        <rect id="Rectangle_7-2" data-name="Rectangle 7" width="121.597" height="25.828" rx="12.914" transform="translate(203.323 243.594)" fill="#ebebeb"/>
        <rect id="Rectangle_7-3" data-name="Rectangle 7" width="121.597" height="25.828" rx="12.914" transform="translate(203.323 279.915)" fill="#ebebeb"/>
        <rect id="Rectangle_9" data-name="Rectangle 9" width="56.822" height="25.828" rx="12.914" transform="translate(206.11 316.139)" fill="#ebebeb"/>
        <line id="Line_1" data-name="Line 1" x2="346.1" transform="translate(15.497 110.065)" fill="none" stroke="#ebebeb" stroke-width="6"/>
        <circle id="Ellipse_2" data-name="Ellipse 2" cx="22" cy="22" r="22" transform="translate(64.054 98.148)" fill="#343434"/>
        <circle id="Ellipse_2-2" data-name="Ellipse 2" cx="22" cy="22" r="22" transform="translate(64.054 193.148)" fill="#343434"/>
        <circle id="Ellipse_2-3" data-name="Ellipse 2" cx="22" cy="22" r="22" transform="translate(64.054 288.148)" fill="#343434"/>
      </g>
      <g id="sample1-2" data-name="sample1" transform="matrix(0.899, 0.438, -0.438, 0.899, 1215.181, 780.608)" opacity="0.4">
        <g id="Rectangle_4-2" data-name="Rectangle 4" transform="translate(0)" fill="none" stroke="#ebebeb" stroke-width="6">
          <rect width="361.08" height="413.253" stroke="none"/>
          <rect x="3" y="3" width="355.08" height="407.253" fill="none"/>
        </g>
        <rect id="Rectangle_5-2" data-name="Rectangle 5" width="173.566" height="413.253" transform="translate(0)" fill="#ebebeb"/>
        <g id="basic_picture_multiple-2" data-name="basic_picture_multiple" transform="translate(227.635 27.36)">
          <g id="Group_1-2" data-name="Group 1" transform="translate(0.363 9.143)">
            <rect id="Rectangle_6-2" data-name="Rectangle 6" width="58.079" height="44.915" fill="none" stroke="#ebebeb" stroke-miterlimit="10" stroke-width="2"/>
          </g>
          <path id="Path_1-2" data-name="Path 1" d="M0,6.742V0H59.557V44.949h-8.99" transform="translate(10.113)" fill="none" stroke="#ebebeb" stroke-miterlimit="10" stroke-width="2"/>
          <path id="Path_2-2" data-name="Path 2" d="M0,15.732,15.732,0,31.464,17.98,42.7,11.237,58.433,24.722" transform="translate(0 26.969)" fill="none" stroke="#ebebeb" stroke-miterlimit="10" stroke-width="2"/>
          <ellipse id="Ellipse_1-2" data-name="Ellipse 1" cx="5.421" cy="5.808" rx="5.421" ry="5.808" transform="translate(38.308 17.661)" fill="none" stroke="#ebebeb" stroke-miterlimit="10" stroke-width="2"/>
        </g>
        <rect id="Rectangle_7-4" data-name="Rectangle 7" width="118.81" height="25.828" rx="12.914" transform="translate(205.933 184.673)" fill="#ebebeb"/>
        <rect id="Rectangle_7-5" data-name="Rectangle 7" width="121.597" height="25.828" rx="12.914" transform="translate(203.323 243.594)" fill="#ebebeb"/>
        <rect id="Rectangle_7-6" data-name="Rectangle 7" width="121.597" height="25.828" rx="12.914" transform="translate(203.323 279.915)" fill="#ebebeb"/>
        <rect id="Rectangle_9-2" data-name="Rectangle 9" width="56.822" height="25.828" rx="12.914" transform="translate(206.11 316.139)" fill="#ebebeb"/>
        <line id="Line_1-2" data-name="Line 1" x2="346.1" transform="translate(15.497 110.065)" fill="none" stroke="#ebebeb" stroke-width="6"/>
        <circle id="Ellipse_2-4" data-name="Ellipse 2" cx="22" cy="22" r="22" transform="translate(64.054 98.148)" fill="#343434"/>
        <circle id="Ellipse_2-5" data-name="Ellipse 2" cx="22" cy="22" r="22" transform="translate(64.054 193.148)" fill="#343434"/>
        <circle id="Ellipse_2-6" data-name="Ellipse 2" cx="22" cy="22" r="22" transform="translate(64.054 288.148)" fill="#343434"/>
      </g>
      <g id="sample1-3" data-name="sample1" transform="matrix(0.899, 0.438, -0.438, 0.899, 526.114, 442.806)" opacity="0.4">
        <g id="Rectangle_4-3" data-name="Rectangle 4" transform="translate(0)" fill="none" stroke="#ebebeb" stroke-width="6">
          <rect width="361.08" height="413.253" stroke="none"/>
          <rect x="3" y="3" width="355.08" height="407.253" fill="none"/>
        </g>
        <rect id="Rectangle_5-3" data-name="Rectangle 5" width="173.566" height="413.253" transform="translate(0)" fill="#ebebeb"/>
        <g id="basic_picture_multiple-3" data-name="basic_picture_multiple" transform="translate(227.635 27.36)">
          <g id="Group_1-3" data-name="Group 1" transform="translate(0.363 9.143)">
            <rect id="Rectangle_6-3" data-name="Rectangle 6" width="58.079" height="44.915" fill="none" stroke="#ebebeb" stroke-miterlimit="10" stroke-width="2"/>
          </g>
          <path id="Path_1-3" data-name="Path 1" d="M0,6.742V0H59.557V44.949h-8.99" transform="translate(10.113)" fill="none" stroke="#ebebeb" stroke-miterlimit="10" stroke-width="2"/>
          <path id="Path_2-3" data-name="Path 2" d="M0,15.732,15.732,0,31.464,17.98,42.7,11.237,58.433,24.722" transform="translate(0 26.969)" fill="none" stroke="#ebebeb" stroke-miterlimit="10" stroke-width="2"/>
          <ellipse id="Ellipse_1-3" data-name="Ellipse 1" cx="5.421" cy="5.808" rx="5.421" ry="5.808" transform="translate(38.308 17.661)" fill="none" stroke="#ebebeb" stroke-miterlimit="10" stroke-width="2"/>
        </g>
        <rect id="Rectangle_7-7" data-name="Rectangle 7" width="118.81" height="25.828" rx="12.914" transform="translate(205.933 184.673)" fill="#ebebeb"/>
        <rect id="Rectangle_7-8" data-name="Rectangle 7" width="121.597" height="25.828" rx="12.914" transform="translate(203.323 243.594)" fill="#ebebeb"/>
        <rect id="Rectangle_7-9" data-name="Rectangle 7" width="121.597" height="25.828" rx="12.914" transform="translate(203.323 279.915)" fill="#ebebeb"/>
        <rect id="Rectangle_9-3" data-name="Rectangle 9" width="56.822" height="25.828" rx="12.914" transform="translate(206.11 316.139)" fill="#ebebeb"/>
        <line id="Line_1-3" data-name="Line 1" x2="346.1" transform="translate(15.497 110.065)" fill="none" stroke="#ebebeb" stroke-width="6"/>
        <g id="Repeat_Grid_1" data-name="Repeat Grid 1" transform="translate(64.054 98.148)" clip-path="url(#clip-path)">
          <g transform="translate(-242 -1253)">
            <circle id="Ellipse_2-7" data-name="Ellipse 2" cx="22" cy="22" r="22" transform="translate(242 1253)" fill="#f5f5f5"/>
          </g>
          <g transform="translate(-242 -1158)">
            <circle id="Ellipse_2-8" data-name="Ellipse 2" cx="22" cy="22" r="22" transform="translate(242 1253)" fill="#f5f5f5"/>
          </g>
          <g transform="translate(-242 -1063)">
            <circle id="Ellipse_2-9" data-name="Ellipse 2" cx="22" cy="22" r="22" transform="translate(242 1253)" fill="#f5f5f5"/>
          </g>
        </g>
      </g>
      <g id="sample1-4" data-name="sample1" transform="matrix(0.899, 0.438, -0.438, 0.899, 336.114, 833.806)" opacity="0.4">
        <g id="Rectangle_4-4" data-name="Rectangle 4" transform="translate(0)" fill="none" stroke="#ebebeb" stroke-width="6">
          <rect width="361.08" height="413.253" stroke="none"/>
          <rect x="3" y="3" width="355.08" height="407.253" fill="none"/>
        </g>
        <rect id="Rectangle_5-4" data-name="Rectangle 5" width="173.566" height="413.253" transform="translate(0)" fill="#ebebeb"/>
        <g id="basic_picture_multiple-4" data-name="basic_picture_multiple" transform="translate(227.635 27.36)">
          <g id="Group_1-4" data-name="Group 1" transform="translate(0.363 9.143)">
            <rect id="Rectangle_6-4" data-name="Rectangle 6" width="58.079" height="44.915" fill="none" stroke="#ebebeb" stroke-miterlimit="10" stroke-width="2"/>
          </g>
          <path id="Path_1-4" data-name="Path 1" d="M0,6.742V0H59.557V44.949h-8.99" transform="translate(10.113)" fill="none" stroke="#ebebeb" stroke-miterlimit="10" stroke-width="2"/>
          <path id="Path_2-4" data-name="Path 2" d="M0,15.732,15.732,0,31.464,17.98,42.7,11.237,58.433,24.722" transform="translate(0 26.969)" fill="none" stroke="#ebebeb" stroke-miterlimit="10" stroke-width="2"/>
          <ellipse id="Ellipse_1-4" data-name="Ellipse 1" cx="5.421" cy="5.808" rx="5.421" ry="5.808" transform="translate(38.308 17.661)" fill="none" stroke="#ebebeb" stroke-miterlimit="10" stroke-width="2"/>
        </g>
        <rect id="Rectangle_7-10" data-name="Rectangle 7" width="118.81" height="25.828" rx="12.914" transform="translate(205.933 184.673)" fill="#ebebeb"/>
        <rect id="Rectangle_7-11" data-name="Rectangle 7" width="121.597" height="25.828" rx="12.914" transform="translate(203.323 243.594)" fill="#ebebeb"/>
        <rect id="Rectangle_7-12" data-name="Rectangle 7" width="121.597" height="25.828" rx="12.914" transform="translate(203.323 279.915)" fill="#ebebeb"/>
        <rect id="Rectangle_9-4" data-name="Rectangle 9" width="56.822" height="25.828" rx="12.914" transform="translate(206.11 316.139)" fill="#ebebeb"/>
        <line id="Line_1-4" data-name="Line 1" x2="346.1" transform="translate(15.497 110.065)" fill="none" stroke="#ebebeb" stroke-width="6"/>
        <g id="Repeat_Grid_1-2" data-name="Repeat Grid 1" transform="translate(64.054 98.148)" clip-path="url(#clip-path)">
          <g transform="translate(-242 -1253)">
            <circle id="Ellipse_2-10" data-name="Ellipse 2" cx="22" cy="22" r="22" transform="translate(242 1253)" fill="#343434"/>
          </g>
          <g transform="translate(-242 -1158)">
            <circle id="Ellipse_2-11" data-name="Ellipse 2" cx="22" cy="22" r="22" transform="translate(242 1253)" fill="#343434"/>
          </g>
          <g transform="translate(-242 -1063)">
            <circle id="Ellipse_2-12" data-name="Ellipse 2" cx="22" cy="22" r="22" transform="translate(242 1253)" fill="#343434"/>
          </g>
        </g>
      </g>
      <g id="sample1-5" data-name="sample1" transform="matrix(0.899, 0.438, -0.438, 0.899, 2093.377, 722.786)" opacity="0.6">
        <g id="Rectangle_4-5" data-name="Rectangle 4" transform="translate(0)" fill="none" stroke="#ebebeb" stroke-width="6">
          <rect width="361.08" height="413.253" stroke="none"/>
          <rect x="3" y="3" width="355.08" height="407.253" fill="none"/>
        </g>
        <rect id="Rectangle_5-5" data-name="Rectangle 5" width="173.566" height="413.253" transform="translate(0)" fill="#ebebeb"/>
        <g id="basic_picture_multiple-5" data-name="basic_picture_multiple" transform="translate(227.635 27.36)">
          <g id="Group_1-5" data-name="Group 1" transform="translate(0.363 9.143)">
            <rect id="Rectangle_6-5" data-name="Rectangle 6" width="58.079" height="44.915" fill="none" stroke="#ebebeb" stroke-miterlimit="10" stroke-width="2"/>
          </g>
          <path id="Path_1-5" data-name="Path 1" d="M0,6.742V0H59.557V44.949h-8.99" transform="translate(10.113)" fill="none" stroke="#ebebeb" stroke-miterlimit="10" stroke-width="2"/>
          <path id="Path_2-5" data-name="Path 2" d="M0,15.732,15.732,0,31.464,17.98,42.7,11.237,58.433,24.722" transform="translate(0 26.969)" fill="none" stroke="#ebebeb" stroke-miterlimit="10" stroke-width="2"/>
          <ellipse id="Ellipse_1-5" data-name="Ellipse 1" cx="5.421" cy="5.808" rx="5.421" ry="5.808" transform="translate(38.308 17.661)" fill="none" stroke="#ebebeb" stroke-miterlimit="10" stroke-width="2"/>
        </g>
        <rect id="Rectangle_7-13" data-name="Rectangle 7" width="118.81" height="25.828" rx="12.914" transform="translate(205.933 184.673)" fill="#ebebeb"/>
        <rect id="Rectangle_7-14" data-name="Rectangle 7" width="121.597" height="25.828" rx="12.914" transform="translate(203.323 243.594)" fill="#ebebeb"/>
        <rect id="Rectangle_7-15" data-name="Rectangle 7" width="121.597" height="25.828" rx="12.914" transform="translate(203.323 279.915)" fill="#ebebeb"/>
        <rect id="Rectangle_9-5" data-name="Rectangle 9" width="56.822" height="25.828" rx="12.914" transform="translate(206.11 316.139)" fill="#ebebeb"/>
        <line id="Line_1-5" data-name="Line 1" x2="346.1" transform="translate(15.497 110.065)" fill="none" stroke="#ebebeb" stroke-width="6"/>
        <g id="Repeat_Grid_1-3" data-name="Repeat Grid 1" transform="translate(64.054 98.148)" clip-path="url(#clip-path)">
          <g transform="translate(-242 -1253)">
            <circle id="Ellipse_2-13" data-name="Ellipse 2" cx="22" cy="22" r="22" transform="translate(242 1253)" fill="#f5f5f5"/>
          </g>
          <g transform="translate(-242 -1158)">
            <circle id="Ellipse_2-14" data-name="Ellipse 2" cx="22" cy="22" r="22" transform="translate(242 1253)" fill="#f5f5f5"/>
          </g>
          <g transform="translate(-242 -1063)">
            <circle id="Ellipse_2-15" data-name="Ellipse 2" cx="22" cy="22" r="22" transform="translate(242 1253)" fill="#f5f5f5"/>
          </g>
        </g>
      </g>
      <g id="sample3" transform="matrix(0.899, 0.438, -0.438, 0.899, 718.738, 52.078)" opacity="0.4">
        <g id="Rectangle_4-6" data-name="Rectangle 4" transform="translate(0)" fill="none" stroke="#ebebeb" stroke-width="6">
          <rect width="361.597" height="413.253" stroke="none"/>
          <rect x="3" y="3" width="355.597" height="407.253" fill="none"/>
        </g>
        <g id="basic_picture_multiple-6" data-name="basic_picture_multiple" transform="translate(83.688 52.69)">
          <g id="Group_1-6" data-name="Group 1" transform="translate(0.371 9.346)">
            <rect id="Rectangle_6-6" data-name="Rectangle 6" width="59.373" height="45.915" fill="none" stroke="#ebebeb" stroke-miterlimit="10" stroke-width="2"/>
          </g>
          <path id="Path_1-6" data-name="Path 1" d="M0,6.893V0H60.884V45.95h-9.19" transform="translate(10.339)" fill="none" stroke="#ebebeb" stroke-miterlimit="10" stroke-width="2"/>
          <path id="Path_2-6" data-name="Path 2" d="M0,16.083,16.083,0,32.165,18.38l11.488-6.893L59.735,25.273" transform="translate(0 27.57)" fill="none" stroke="#ebebeb" stroke-miterlimit="10" stroke-width="2"/>
          <ellipse id="Ellipse_1-6" data-name="Ellipse 1" cx="5.541" cy="5.937" rx="5.541" ry="5.937" transform="translate(39.161 18.055)" fill="none" stroke="#ebebeb" stroke-miterlimit="10" stroke-width="2"/>
        </g>
        <rect id="Rectangle_7-16" data-name="Rectangle 7" width="149.804" height="25.828" rx="12.914" transform="translate(44.425 152.549)" fill="#ebebeb"/>
        <rect id="Rectangle_7-17" data-name="Rectangle 7" width="258.283" height="25.828" rx="12.914" transform="translate(44.425 196.425)" fill="#ebebeb"/>
        <rect id="Rectangle_9-6" data-name="Rectangle 9" width="94.015" height="25.828" rx="12.914" transform="translate(208.693 67.154)" fill="#ebebeb"/>
        <rect id="Rectangle_17" data-name="Rectangle 17" width="258.283" height="120.877" transform="translate(44.425 246.919)" fill="#eee"/>
      </g>
      <g id="sample3-2" data-name="sample3" transform="matrix(0.899, 0.438, -0.438, 0.899, 1558.675, 949.871)" opacity="0.4">
        <g id="Rectangle_4-7" data-name="Rectangle 4" transform="translate(0)" fill="none" stroke="#ebebeb" stroke-width="6">
          <rect width="361.597" height="413.253" stroke="none"/>
          <rect x="3" y="3" width="355.597" height="407.253" fill="none"/>
        </g>
        <g id="basic_picture_multiple-7" data-name="basic_picture_multiple" transform="translate(83.688 52.69)">
          <g id="Group_1-7" data-name="Group 1" transform="translate(0.371 9.346)">
            <rect id="Rectangle_6-7" data-name="Rectangle 6" width="59.373" height="45.915" fill="none" stroke="#ebebeb" stroke-miterlimit="10" stroke-width="2"/>
          </g>
          <path id="Path_1-7" data-name="Path 1" d="M0,6.893V0H60.884V45.95h-9.19" transform="translate(10.339)" fill="none" stroke="#ebebeb" stroke-miterlimit="10" stroke-width="2"/>
          <path id="Path_2-7" data-name="Path 2" d="M0,16.083,16.083,0,32.165,18.38l11.488-6.893L59.735,25.273" transform="translate(0 27.57)" fill="none" stroke="#ebebeb" stroke-miterlimit="10" stroke-width="2"/>
          <ellipse id="Ellipse_1-7" data-name="Ellipse 1" cx="5.541" cy="5.937" rx="5.541" ry="5.937" transform="translate(39.161 18.055)" fill="none" stroke="#ebebeb" stroke-miterlimit="10" stroke-width="2"/>
        </g>
        <rect id="Rectangle_7-18" data-name="Rectangle 7" width="149.804" height="25.828" rx="12.914" transform="translate(44.425 152.549)" fill="#ebebeb"/>
        <rect id="Rectangle_7-19" data-name="Rectangle 7" width="258.283" height="25.828" rx="12.914" transform="translate(44.425 196.425)" fill="#ebebeb"/>
        <rect id="Rectangle_9-7" data-name="Rectangle 9" width="94.015" height="25.828" rx="12.914" transform="translate(208.693 67.154)" fill="#ebebeb"/>
        <rect id="Rectangle_17-2" data-name="Rectangle 17" width="258.283" height="120.877" transform="translate(44.425 246.919)" fill="#eee"/>
      </g>
      <g id="Group_2" data-name="Group 2" transform="matrix(0.899, 0.438, -0.438, 0.899, 1749.455, 554.793)" opacity="0.4">
        <g id="sample2" transform="translate(0 0)">
          <g id="Rectangle_11" data-name="Rectangle 11" transform="translate(0)" fill="none" stroke="#ebebeb" stroke-width="6">
            <rect width="361.597" height="413.253" stroke="none"/>
            <rect x="3" y="3" width="355.597" height="407.253" fill="none"/>
          </g>
          <path id="Path_3" data-name="Path 3" d="M0,0H361.6V179.765s-56.7,33.557-117.566,22.823c-49-8.643-99.738-59.777-133.2-74.787C35.79,94.147,0,213.058,0,213.058Z" transform="translate(0)" fill="#ebebeb"/>
          <rect id="Rectangle_16" data-name="Rectangle 16" width="116.744" height="25.828" rx="12.914" transform="translate(59.922 202.656)" fill="#ebebeb"/>
          <rect id="Rectangle_14" data-name="Rectangle 14" width="209.726" height="25.828" rx="12.914" transform="translate(59.922 261.577)" fill="#ebebeb"/>
          <rect id="Rectangle_12" data-name="Rectangle 12" width="209.726" height="25.828" rx="12.914" transform="translate(59.922 297.898)" fill="#ebebeb"/>
          <rect id="Rectangle_15" data-name="Rectangle 15" width="94.015" height="25.828" rx="12.914" transform="translate(222.659 350.232)" fill="#ebebeb"/>
        </g>
        <circle id="Ellipse_3" data-name="Ellipse 3" cx="47.008" cy="47.008" r="47.008" transform="translate(211.792 53.723)" fill="#343434"/>
      </g>
      <g id="Group_4" data-name="Group 4" transform="matrix(0.899, 0.438, -0.438, 0.899, 869.225, 611.615)" opacity="0.4">
        <g id="sample2-2" data-name="sample2" transform="translate(0 0)">
          <g id="Rectangle_11-2" data-name="Rectangle 11" transform="translate(0)" fill="none" stroke="#ebebeb" stroke-width="6">
            <rect width="361.597" height="413.253" stroke="none"/>
            <rect x="3" y="3" width="355.597" height="407.253" fill="none"/>
          </g>
          <path id="Path_3-2" data-name="Path 3" d="M0,0H361.6V179.765s-56.7,33.557-117.566,22.823c-49-8.643-99.738-59.777-133.2-74.787C35.79,94.147,0,213.058,0,213.058Z" transform="translate(0)" fill="#ebebeb"/>
          <rect id="Rectangle_16-2" data-name="Rectangle 16" width="116.744" height="25.828" rx="12.914" transform="translate(59.922 202.656)" fill="#ebebeb"/>
          <rect id="Rectangle_14-2" data-name="Rectangle 14" width="209.726" height="25.828" rx="12.914" transform="translate(59.922 261.577)" fill="#ebebeb"/>
          <rect id="Rectangle_12-2" data-name="Rectangle 12" width="209.726" height="25.828" rx="12.914" transform="translate(59.922 297.898)" fill="#ebebeb"/>
          <rect id="Rectangle_15-2" data-name="Rectangle 15" width="94.015" height="25.828" rx="12.914" transform="translate(222.659 350.232)" fill="#ebebeb"/>
        </g>
        <circle id="Ellipse_3-2" data-name="Ellipse 3" cx="47.008" cy="47.008" r="47.008" transform="translate(211.792 53.723)" fill="#343434"/>
      </g>
      <g id="Group_8" data-name="Group 8" transform="matrix(0.899, 0.438, -0.438, 0.899, 679.225, 1002.615)" opacity="0.4">
        <g id="sample2-3" data-name="sample2" transform="translate(0 0)">
          <g id="Rectangle_11-3" data-name="Rectangle 11" transform="translate(0)" fill="none" stroke="#ebebeb" stroke-width="6">
            <rect width="361.597" height="413.253" stroke="none"/>
            <rect x="3" y="3" width="355.597" height="407.253" fill="none"/>
          </g>
          <path id="Path_3-3" data-name="Path 3" d="M0,0H361.6V179.765s-56.7,33.557-117.566,22.823c-49-8.643-99.738-59.777-133.2-74.787C35.79,94.147,0,213.058,0,213.058Z" transform="translate(0)" fill="#ebebeb"/>
          <rect id="Rectangle_16-3" data-name="Rectangle 16" width="116.744" height="25.828" rx="12.914" transform="translate(59.922 202.656)" fill="#ebebeb"/>
          <rect id="Rectangle_14-3" data-name="Rectangle 14" width="209.726" height="25.828" rx="12.914" transform="translate(59.922 261.577)" fill="#ebebeb"/>
          <rect id="Rectangle_12-3" data-name="Rectangle 12" width="209.726" height="25.828" rx="12.914" transform="translate(59.922 297.898)" fill="#ebebeb"/>
          <rect id="Rectangle_15-3" data-name="Rectangle 15" width="94.015" height="25.828" rx="12.914" transform="translate(222.659 350.232)" fill="#ebebeb"/>
        </g>
        <circle id="Ellipse_3-3" data-name="Ellipse 3" cx="47.008" cy="47.008" r="47.008" transform="translate(211.792 53.723)" fill="#f5f5f5"/>
      </g>
      <g id="Group_5" data-name="Group 5" transform="matrix(0.899, 0.438, -0.438, 0.899, 181.158, 274.813)" opacity="0.4">
        <g id="sample2-4" data-name="sample2" transform="translate(0 0)">
          <g id="Rectangle_11-4" data-name="Rectangle 11" transform="translate(0)" fill="none" stroke="#ebebeb" stroke-width="6">
            <rect width="361.597" height="413.253" stroke="none"/>
            <rect x="3" y="3" width="355.597" height="407.253" fill="none"/>
          </g>
          <path id="Path_3-4" data-name="Path 3" d="M0,0H361.6V179.765s-56.7,33.557-117.566,22.823c-49-8.643-99.738-59.777-133.2-74.787C35.79,94.147,0,213.058,0,213.058Z" transform="translate(0)" fill="#ebebeb"/>
          <rect id="Rectangle_16-4" data-name="Rectangle 16" width="116.744" height="25.828" rx="12.914" transform="translate(59.922 202.656)" fill="#ebebeb"/>
          <rect id="Rectangle_14-4" data-name="Rectangle 14" width="209.726" height="25.828" rx="12.914" transform="translate(59.922 261.577)" fill="#ebebeb"/>
          <rect id="Rectangle_12-4" data-name="Rectangle 12" width="209.726" height="25.828" rx="12.914" transform="translate(59.922 297.898)" fill="#ebebeb"/>
          <rect id="Rectangle_15-4" data-name="Rectangle 15" width="94.015" height="25.828" rx="12.914" transform="translate(222.659 350.232)" fill="#ebebeb"/>
        </g>
        <circle id="Ellipse_3-4" data-name="Ellipse 3" cx="47.008" cy="47.008" r="47.008" transform="translate(211.792 53.723)" fill="#343434"/>
      </g>
      <g id="Group_7" data-name="Group 7" transform="matrix(0.899, 0.438, -0.438, 0.899, -8.842, 665.813)" opacity="0.4">
        <g id="sample2-5" data-name="sample2" transform="translate(0 0)">
          <g id="Rectangle_11-5" data-name="Rectangle 11" transform="translate(0)" fill="none" stroke="#ebebeb" stroke-width="6">
            <rect width="361.597" height="413.253" stroke="none"/>
            <rect x="3" y="3" width="355.597" height="407.253" fill="none"/>
          </g>
          <path id="Path_3-5" data-name="Path 3" d="M0,0H361.6V179.765s-56.7,33.557-117.566,22.823c-49-8.643-99.738-59.777-133.2-74.787C35.79,94.147,0,213.058,0,213.058Z" transform="translate(0)" fill="#ebebeb"/>
          <rect id="Rectangle_16-5" data-name="Rectangle 16" width="116.744" height="25.828" rx="12.914" transform="translate(59.922 202.656)" fill="#ebebeb"/>
          <rect id="Rectangle_14-5" data-name="Rectangle 14" width="209.726" height="25.828" rx="12.914" transform="translate(59.922 261.577)" fill="#ebebeb"/>
          <rect id="Rectangle_12-5" data-name="Rectangle 12" width="209.726" height="25.828" rx="12.914" transform="translate(59.922 297.898)" fill="#ebebeb"/>
          <rect id="Rectangle_15-5" data-name="Rectangle 15" width="94.015" height="25.828" rx="12.914" transform="translate(222.659 350.232)" fill="#ebebeb"/>
        </g>
        <circle id="Ellipse_3-5" data-name="Ellipse 3" cx="47.008" cy="47.008" r="47.008" transform="translate(211.792 53.723)" fill="#343434"/>
      </g>
      <g id="Group_3" data-name="Group 3" transform="matrix(0.899, 0.438, -0.438, 0.899, 1595.551, -1)" opacity="0.4">
        <g id="sample2-6" data-name="sample2" transform="translate(0 0)">
          <g id="Rectangle_11-6" data-name="Rectangle 11" transform="translate(0)" fill="none" stroke="#ebebeb" stroke-width="6">
            <rect width="361.597" height="413.253" stroke="none"/>
            <rect x="3" y="3" width="355.597" height="407.253" fill="none"/>
          </g>
          <path id="Path_3-6" data-name="Path 3" d="M0,0H361.6V179.765s-56.7,33.557-117.566,22.823c-49-8.643-99.738-59.777-133.2-74.787C35.79,94.147,0,213.058,0,213.058Z" transform="translate(0)" fill="#ebebeb"/>
          <rect id="Rectangle_16-6" data-name="Rectangle 16" width="116.744" height="25.828" rx="12.914" transform="translate(59.922 202.656)" fill="#ebebeb"/>
          <rect id="Rectangle_14-6" data-name="Rectangle 14" width="209.726" height="25.828" rx="12.914" transform="translate(59.922 261.577)" fill="#ebebeb"/>
          <rect id="Rectangle_12-6" data-name="Rectangle 12" width="209.726" height="25.828" rx="12.914" transform="translate(59.922 297.898)" fill="#ebebeb"/>
          <rect id="Rectangle_15-6" data-name="Rectangle 15" width="94.015" height="25.828" rx="12.914" transform="translate(222.659 350.232)" fill="#ebebeb"/>
        </g>
        <circle id="Ellipse_3-6" data-name="Ellipse 3" cx="47.008" cy="47.008" r="47.008" transform="translate(211.792 53.723)" fill="#343434"/>
      </g>
    </g>
    <g id="card" transform="matrix(0.899, 0.438, -0.438, 0.899, 1339.75, 305.584)">
      <path id="Path_4" data-name="Path 4" d="M0,0H361.6V413.253H0Z" transform="translate(0 0)" fill="#525252"/>
      <rect id="Rectangle_5-6" data-name="Rectangle 5" width="361.597" height="158.069" transform="translate(0 0)" fill="#6c6c6c"/>
      <g id="basic_picture_multiple-8" data-name="basic_picture_multiple" transform="translate(145.004 51.431)">
        <g id="Group_1-8" data-name="Group 1" transform="translate(0.371 9.342)">
          <rect id="Rectangle_6-8" data-name="Rectangle 6" width="59.343" height="45.892" transform="translate(0 0)" fill="none" stroke="#343434" stroke-miterlimit="10" stroke-width="2"/>
        </g>
        <path id="Path_1-8" data-name="Path 1" d="M0,6.889V0H60.854V45.927H51.668" transform="translate(10.334)" fill="none" stroke="#343434" stroke-miterlimit="10" stroke-width="2"/>
        <path id="Path_2-8" data-name="Path 2" d="M0,16.075,16.075,0,32.149,18.371l11.482-6.889L59.706,25.26" transform="translate(0 27.556)" fill="none" stroke="#343434" stroke-miterlimit="10" stroke-width="2"/>
        <ellipse id="Ellipse_1-8" data-name="Ellipse 1" cx="5.539" cy="5.934" rx="5.539" ry="5.934" transform="translate(39.142 18.046)" fill="none" stroke="#343434" stroke-miterlimit="10" stroke-width="2"/>
      </g>
      <rect id="Rectangle_7-20" data-name="Rectangle 7" width="114.678" height="19.63" rx="9.815" transform="translate(34.093 197.882)" fill="#09f"/>
      <rect id="Rectangle_7-21" data-name="Rectangle 7" width="291.344" height="20.663" rx="10.331" transform="translate(34.093 256.735)" fill="#7a7a7a"/>
      <rect id="Rectangle_7-22" data-name="Rectangle 7" width="197.329" height="19.63" rx="9.815" transform="translate(34.093 294.148)" fill="#7a7a7a"/>
      <rect id="Rectangle_8" data-name="Rectangle 8" width="71.286" height="19.63" rx="9.815" transform="translate(163.037 358.497)" fill="#7a7a7a"/>
      <rect id="Rectangle_9-8" data-name="Rectangle 9" width="72.319" height="19.63" rx="9.815" transform="translate(254.151 358.497)" fill="#fff"/>
    </g>
  </g>
</svg>
